<svg width="25" height="24" viewBox="0 0 25 24" fill="none" xmlns="http://www.w3.org/2000/svg">
<g clip-path="url(#clip0_14_158)">
<path d="M24.9999 8.82247C24.9935 7.30451 24.4106 5.8343 23.3482 4.65433C23.709 3.30564 23.5963 1.88944 23.0263 0.600224C22.9139 0.352048 22.6835 0.162309 22.3989 0.0829483C21.9959 -0.041144 20.471 -0.273806 17.3639 1.53589V1.53625C16.0273 1.21918 14.649 1.06948 13.267 1.09149C11.883 1.06912 10.5023 1.21882 9.164 1.53625C5.97624 -0.314973 4.31891 -0.0152222 3.98537 0.072782C3.69918 0.155387 3.46919 0.349094 3.358 0.60015C2.78643 1.88503 2.66962 3.29725 3.02445 4.64419C1.92703 5.81797 1.34225 7.31026 1.37873 8.84299C1.37873 14.5626 5.02087 16.2897 8.35845 16.9C8.18705 17.2766 8.06905 17.6709 8.00763 18.0738C8.00161 18.1167 8.00161 18.1604 8.00763 18.2033V19.7855C4.96959 20.0131 4.31925 18.4151 4.25585 18.234V18.2343C4.241 18.1921 4.22374 18.1507 4.20367 18.1099C3.61685 17.0343 2.58405 16.2078 1.32654 15.8088C0.799118 15.6505 0.228294 15.9062 0.0521726 16.3802C-0.124031 16.8542 0.160548 17.3672 0.687968 17.5259C1.38477 17.752 1.96603 18.1986 2.32239 18.7822C2.72538 19.956 4.37111 21.8126 7.99599 21.6055V23.095C7.99599 23.5949 8.44675 24 9.00307 24C9.55899 24 10.0101 23.5949 10.0101 23.095V18.2703C10.0864 17.7433 10.3417 17.2506 10.7407 16.8585C11.0265 16.6182 11.13 16.2507 11.0064 15.917C10.8828 15.5837 10.554 15.3453 10.1655 15.307C6.65538 14.9398 3.41018 13.9006 3.41018 8.80684H3.40978C3.36282 7.56379 3.89706 6.35971 4.88287 5.48678C5.1502 5.2285 5.23849 4.85949 5.11327 4.52511C4.77409 3.6399 4.75202 2.68145 5.04985 1.78433C6.28527 2.03503 7.44568 2.5238 8.45041 3.21677C8.71212 3.37225 9.03845 3.41229 9.33667 3.32535C10.6155 2.97545 11.9481 2.81313 13.2843 2.84452C14.6181 2.81313 15.9491 2.97546 17.2259 3.32535C17.5241 3.41301 17.8508 3.37297 18.1121 3.21677C19.0799 2.55016 20.1877 2.06644 21.3689 1.79449C21.6624 2.7017 21.6363 3.66806 21.2939 4.56122C21.1795 4.86459 21.2542 5.20005 21.4898 5.44029C22.4422 6.35435 22.9818 7.55479 23.003 8.80688C23.003 13.8902 19.5909 14.9453 16.2477 15.3071C15.8379 15.3482 15.4979 15.6105 15.3912 15.9683C15.2844 16.3261 15.4325 16.706 15.7645 16.926C16.1213 17.1691 16.5355 17.8516 16.5355 18.9943V23.09C16.5355 23.5899 16.9863 23.995 17.5422 23.995C18.0985 23.995 18.5493 23.5899 18.5493 23.09V18.9943C18.5597 18.274 18.4132 17.559 18.1178 16.8895C20.8223 16.3726 25 14.7747 25 8.82242L24.9999 8.82247Z" fill="white"/>
</g>
<defs>
<clipPath id="clip0_14_158">
<rect width="25" height="24" fill="white"/>
</clipPath>
</defs>
</svg>
