<svg width="25" height="24" viewBox="0 0 25 24" fill="none" xmlns="http://www.w3.org/2000/svg">
<path d="M6.32143 2.93142C6.32628 3.53027 6.08551 4.10691 5.65113 4.53674C5.21676 4.96657 4.62367 5.21508 4.00001 5.22857C3.37764 5.20664 2.78783 4.95603 2.35246 4.52851C1.9171 4.10099 1.66946 3.52924 1.66072 2.93142C1.68778 2.34897 1.94452 1.79819 2.37891 1.39072C2.8133 0.983262 3.39282 0.749611 4.00001 0.737137C4.60542 0.749844 5.1829 0.984075 5.6144 1.39194C6.0459 1.7998 6.29881 2.3505 6.32143 2.93142ZM1.91072 9.30857C1.91072 7.98857 2.78572 8.19428 4.00001 8.19428C5.21429 8.19428 6.07144 7.98857 6.07144 9.30857V22.1657C6.07144 23.5029 5.19644 23.2286 4.00001 23.2286C2.80358 23.2286 1.91072 23.5029 1.91072 22.1657V9.30857Z" stroke="white" stroke-width="1.14286" stroke-linecap="round" stroke-linejoin="round"/>
<path d="M9.67857 9.30857C9.67857 8.57143 9.96429 8.29714 10.4107 8.21143C10.8571 8.12571 12.3929 8.21143 12.9286 8.21143C13.4643 8.21143 13.6786 9.05143 13.6607 9.68571C14.119 9.0953 14.7274 8.62765 15.4277 8.32751C16.1281 8.02736 16.8969 7.90476 17.6607 7.97143C18.4108 7.92741 19.1621 8.03536 19.8658 8.28828C20.5696 8.54119 21.21 8.93341 21.7456 9.43945C22.2811 9.94549 22.6998 10.554 22.9743 11.2255C23.2489 11.897 23.3733 12.6165 23.3393 13.3371V22.1143C23.3393 23.4514 22.4821 23.1771 21.2679 23.1771C20.0536 23.1771 19.1964 23.4514 19.1964 22.1143V15.2571C19.2278 14.9042 19.1797 14.549 19.0554 14.2155C18.9311 13.882 18.7335 13.5781 18.4761 13.3244C18.2186 13.0707 17.9072 12.8732 17.5632 12.7452C17.2192 12.6173 16.8505 12.5619 16.4821 12.5829C16.1155 12.5739 15.7511 12.6398 15.4131 12.7763C15.075 12.9127 14.771 13.1165 14.5211 13.3742C14.2712 13.6319 14.0813 13.9376 13.9637 14.271C13.8462 14.6045 13.8038 14.9582 13.8393 15.3086V22.1657C13.8393 23.5029 12.9643 23.2286 11.75 23.2286C10.5357 23.2286 9.67857 23.5029 9.67857 22.1657V9.30857Z" stroke="white" stroke-width="1.14286" stroke-linecap="round" stroke-linejoin="round"/>
</svg>
