<svg width="261" height="35" viewBox="0 0 281 43" fill="none" xmlns="http://www.w3.org/2000/svg">
<path d="M0.840909 24.7273V22L22.7955 10.8182V15.1818L5.95455 23.2955L6.09091 23.0227V23.7045L5.95455 23.4318L22.7955 31.5455V35.9091L0.840909 24.7273ZM43.6634 0.454543L32.4134 42.25H28.7315L39.9815 0.454543H43.6634ZM71.5455 21.4545L49.5909 32.6364V28.2727L66.4318 20.1591L66.2955 20.4318V19.75L66.4318 20.0227L49.5909 11.9091V7.54545L71.5455 18.7273V21.4545ZM80.6179 37V2.09091H84.8452V33.25H101.072V37H80.6179ZM123.572 26.2955V10.8182H127.595V37H123.572V32.5682H123.3C122.686 33.8977 121.732 35.0284 120.436 35.9602C119.141 36.8807 117.504 37.3409 115.527 37.3409C113.891 37.3409 112.436 36.983 111.163 36.267C109.891 35.5398 108.891 34.4489 108.163 32.9943C107.436 31.5284 107.072 29.6818 107.072 27.4545V10.8182H111.095V27.1818C111.095 29.0909 111.629 30.6136 112.697 31.75C113.777 32.8864 115.152 33.4545 116.822 33.4545C117.822 33.4545 118.839 33.1989 119.874 32.6875C120.919 32.1761 121.794 31.392 122.499 30.3352C123.214 29.2784 123.572 27.9318 123.572 26.2955ZM142.668 37.6136C141.009 37.6136 139.503 37.3011 138.151 36.6761C136.798 36.0398 135.724 35.125 134.929 33.9318C134.134 32.7273 133.736 31.2727 133.736 29.5682C133.736 28.0682 134.031 26.8523 134.622 25.9205C135.213 24.9773 136.003 24.2386 136.991 23.7045C137.98 23.1705 139.071 22.7727 140.264 22.5114C141.469 22.2386 142.679 22.0227 143.895 21.8636C145.486 21.6591 146.776 21.5057 147.764 21.4034C148.764 21.2898 149.491 21.1023 149.946 20.8409C150.412 20.5795 150.645 20.125 150.645 19.4773V19.3409C150.645 17.6591 150.185 16.3523 149.264 15.4205C148.355 14.4886 146.974 14.0227 145.122 14.0227C143.202 14.0227 141.696 14.4432 140.605 15.2841C139.514 16.125 138.747 17.0227 138.304 17.9773L134.486 16.6136C135.168 15.0227 136.077 13.7841 137.213 12.8977C138.361 12 139.611 11.375 140.963 11.0227C142.327 10.6591 143.668 10.4773 144.986 10.4773C145.827 10.4773 146.793 10.5795 147.884 10.7841C148.986 10.9773 150.048 11.3807 151.071 11.9943C152.105 12.608 152.963 13.5341 153.645 14.7727C154.327 16.0114 154.668 17.6705 154.668 19.75V37H150.645V33.4545H150.44C150.168 34.0227 149.713 34.6307 149.077 35.2784C148.44 35.9261 147.594 36.4773 146.537 36.9318C145.48 37.3864 144.19 37.6136 142.668 37.6136ZM143.281 34C144.872 34 146.213 33.6875 147.304 33.0625C148.406 32.4375 149.236 31.6307 149.793 30.642C150.361 29.6534 150.645 28.6136 150.645 27.5227V23.8409C150.474 24.0455 150.099 24.233 149.52 24.4034C148.952 24.5625 148.293 24.7045 147.543 24.8295C146.804 24.9432 146.082 25.0455 145.378 25.1364C144.685 25.2159 144.122 25.2841 143.69 25.3409C142.645 25.4773 141.668 25.6989 140.759 26.0057C139.861 26.3011 139.134 26.75 138.577 27.3523C138.031 27.9432 137.759 28.75 137.759 29.7727C137.759 31.1705 138.276 32.2273 139.31 32.9432C140.355 33.6477 141.679 34 143.281 34ZM166.033 21.25V37H162.01V10.8182H165.896V14.9091H166.237C166.851 13.5795 167.783 12.5114 169.033 11.7045C170.283 10.8864 171.896 10.4773 173.874 10.4773C175.646 10.4773 177.197 10.8409 178.527 11.5682C179.857 12.2841 180.891 13.375 181.629 14.8409C182.368 16.2955 182.737 18.1364 182.737 20.3636V37H178.714V20.6364C178.714 18.5795 178.18 16.9773 177.112 15.8295C176.044 14.6705 174.578 14.0909 172.714 14.0909C171.43 14.0909 170.283 14.3693 169.271 14.9261C168.271 15.483 167.482 16.2955 166.902 17.3636C166.322 18.4318 166.033 19.7273 166.033 21.25Z" fill="#F7F7F7"/>
<path d="M201.406 37H190.634V2.09091H201.884C205.27 2.09091 208.168 2.78977 210.577 4.1875C212.986 5.57386 214.832 7.56818 216.116 10.1705C217.401 12.7614 218.043 15.8636 218.043 19.4773C218.043 23.1136 217.395 26.2443 216.099 28.8693C214.804 31.483 212.918 33.4943 210.44 34.9034C207.963 36.3011 204.952 37 201.406 37ZM194.861 33.25H201.134C204.02 33.25 206.412 32.6932 208.31 31.5795C210.207 30.4659 211.622 28.8807 212.554 26.8239C213.486 24.767 213.952 22.3182 213.952 19.4773C213.952 16.6591 213.491 14.233 212.571 12.1989C211.651 10.1534 210.276 8.58523 208.446 7.49432C206.616 6.39204 204.338 5.84091 201.611 5.84091H194.861V33.25ZM225.134 37V2.09091H246.202V5.84091H229.361V17.6364H245.111V21.3864H229.361V33.25H246.474V37H225.134ZM255.253 2.09091L265.616 31.4773H266.026L276.389 2.09091H280.821L268.003 37H263.639L250.821 2.09091H255.253Z" fill="#01B91E"/>
</svg>
