<svg width="70" height="70" viewBox="0 0 70 70" fill="none" xmlns="http://www.w3.org/2000/svg">
<rect width="70" height="70" rx="20" fill="#07A6FF"/>
<path d="M13.61 10.9495C13.6385 11.208 14.5575 21.006 15.6385 32.7465C16.7195 44.487 17.6285 54.1035 17.6385 54.1225C17.6575 54.132 21.571 55.357 26.336 56.8305L35.005 59.5L39.713 58.0455C49.8075 54.9355 52.3435 54.151 52.372 54.113C52.4005 54.0845 52.812 49.616 55.147 24.422C55.7975 17.3125 56.362 11.275 56.391 10.9975L56.4485 10.5H35.005H13.5525L13.61 10.9495ZM48.4675 20.0395C48.439 20.3455 47.8835 26.5175 47.243 33.751C46.602 40.9845 46.047 46.9365 46.018 46.9745C45.9895 47.0125 43.5015 47.7115 40.5065 48.5245L35.0525 49.998L29.551 48.525C26.5275 47.7115 24.0205 47.013 23.9915 46.975C23.934 46.9175 23.2355 39.1575 23.2355 38.6505V38.44L25.934 38.459L28.642 38.4875L28.824 40.5925C28.9195 41.7505 29.006 42.707 29.0155 42.7165C29.025 42.726 30.3745 43.099 32.02 43.549L35.015 44.3625L37.9335 43.5585C39.541 43.1185 40.89 42.7355 40.919 42.6975C40.9955 42.6305 41.5985 35.837 41.541 35.7315C41.522 35.693 38.747 35.6645 35.3885 35.6645H29.264L29.2255 35.4445C29.1965 35.3295 29.1105 34.2675 29.0245 33.081C28.9385 31.8945 28.8525 30.7845 28.8235 30.6125L28.7755 30.3065H35.435C39.5015 30.3065 42.085 30.268 42.085 30.2205C42.085 30.163 42.19 28.9385 42.324 27.4745C42.458 26.02 42.563 24.805 42.563 24.786C42.563 24.7765 37.9415 24.7575 32.2865 24.7575H22.0015L21.9535 24.346C21.925 24.126 21.829 23.15 21.7525 22.174C21.676 21.198 21.5805 20.203 21.5515 19.9445L21.494 19.495H35.005H48.525L48.4675 20.0395Z" fill="white"/>
</svg>
