<svg width="70" height="70" viewBox="0 0 70 70" fill="none" xmlns="http://www.w3.org/2000/svg">
<rect width="70" height="70" rx="20" fill="black"/>
<path d="M59.215 35.6C59.215 40.94 57.655 45.74 54.54 50.005C51.425 54.265 47.4 57.215 42.465 58.855C41.89 58.96 41.47 58.885 41.205 58.63C40.94 58.375 40.805 58.055 40.805 57.675V50.945C40.805 48.88 40.25 47.37 39.145 46.415C40.355 46.285 41.445 46.095 42.415 45.84C43.385 45.585 44.38 45.17 45.415 44.595C46.445 44.02 47.31 43.315 48 42.475C48.69 41.635 49.255 40.52 49.69 39.125C50.125 37.73 50.345 36.13 50.345 34.325C50.345 31.75 49.505 29.56 47.825 27.755C48.61 25.82 48.525 23.65 47.57 21.245C46.975 21.055 46.115 21.17 44.985 21.595C43.86 22.02 42.88 22.49 42.05 23L40.84 23.765C38.86 23.21 36.82 22.935 34.715 22.935C32.61 22.935 30.57 23.21 28.59 23.765C28.25 23.53 27.8 23.245 27.235 22.905C26.67 22.565 25.785 22.155 24.57 21.675C23.36 21.195 22.445 21.055 21.825 21.245C20.89 23.65 20.815 25.815 21.6 27.755C19.92 29.565 19.08 31.755 19.08 34.325C19.08 36.135 19.3 37.73 19.735 39.11C20.17 40.49 20.73 41.61 21.41 42.46C22.09 43.31 22.945 44.025 23.98 44.595C25.01 45.17 26.01 45.585 26.98 45.84C27.95 46.095 29.04 46.285 30.25 46.415C29.4 47.18 28.88 48.275 28.685 49.7C28.24 49.915 27.76 50.07 27.25 50.18C26.74 50.285 26.135 50.34 25.43 50.34C24.73 50.34 24.03 50.11 23.34 49.655C22.65 49.2 22.06 48.535 21.57 47.66C21.165 46.98 20.65 46.425 20.025 46C19.4 45.575 18.87 45.32 18.445 45.235L17.805 45.14C17.36 45.14 17.05 45.19 16.88 45.285C16.71 45.38 16.655 45.505 16.72 45.65C16.785 45.8 16.88 45.95 17.005 46.095C17.135 46.245 17.27 46.37 17.42 46.48L17.645 46.64C18.115 46.855 18.575 47.255 19.035 47.85C19.49 48.445 19.825 48.99 20.04 49.475L20.36 50.21C20.635 51.02 21.105 51.67 21.765 52.17C22.425 52.67 23.135 52.99 23.9 53.125C24.665 53.265 25.405 53.34 26.115 53.35C26.825 53.36 27.42 53.325 27.885 53.24L28.62 53.11C28.62 53.92 28.675 54.865 28.78 55.95C28.885 57.035 28.94 57.61 28.94 57.675C28.94 58.06 28.8 58.375 28.525 58.63C28.25 58.885 27.825 58.96 27.25 58.855C22.315 57.215 18.29 54.265 15.175 50C12.06 45.735 10.5 40.935 10.5 35.6C10.5 31.155 11.595 27.055 13.785 23.3C15.975 19.545 18.95 16.575 22.7 14.385C26.455 12.195 30.555 11.1 35 11.1C39.445 11.1 43.545 12.195 47.3 14.385C51.05 16.575 54.025 19.545 56.215 23.3C58.405 27.055 59.5 31.155 59.5 35.6H59.215Z" fill="white"/>
</svg>
