<svg width="70" height="70" viewBox="0 0 70 70" fill="none" xmlns="http://www.w3.org/2000/svg">
<rect width="70" height="70" rx="20" fill="#FF7A00"/>
<path d="M10.067 10.4587C10.1002 10.7225 11.1714 20.7204 12.4315 32.7005C13.6915 44.6806 14.751 54.4934 14.7627 54.5128C14.7848 54.5224 19.3464 55.7724 24.9006 57.276L35.0052 60L40.4929 58.5158C52.2592 55.3423 55.2152 54.5418 55.2484 54.5031C55.2816 54.474 55.7613 49.9143 58.483 24.2061C59.2412 16.9515 59.8992 10.7908 59.933 10.5077L60 10H35.0052H10L10.067 10.4587ZM50.7311 19.2755C50.7311 19.4709 50.2852 23.7082 50.2182 24.1281L50.1623 24.548H38.1722H26.1944V24.7531C26.1944 25.0362 26.6181 29.2638 26.7073 29.7913L26.7632 30.2112H38.206H49.6377L49.5818 30.6214C49.5369 30.8556 49.1581 34.6638 48.7116 39.0964C48.2769 43.5291 47.8864 47.1806 47.8415 47.2199C47.8083 47.2587 44.9083 47.9719 41.4173 48.8015L35.06 50.3051L28.648 48.801C25.1238 47.9709 22.2016 47.2582 22.1678 47.2194C22.1008 47.1607 21.2866 39.2423 21.2866 38.725V38.5102H24.4099H27.5325L27.5774 38.725C27.6112 38.852 27.7225 39.8281 27.8228 40.902C27.923 41.976 28.0122 42.8643 28.0232 42.8745C28.0343 42.8842 29.6073 43.2648 31.5253 43.724L35.0163 44.5541L38.4292 43.7337C40.3029 43.2847 41.8753 42.8745 41.9092 42.8158C41.954 42.7571 42.1207 41.273 42.2886 39.5158C42.4669 37.7485 42.6231 36.2158 42.6563 36.0888L42.7012 35.874H31.8266C23.2052 35.874 20.9527 35.8449 20.9527 35.7469C20.9527 35.5612 19.4135 20.2714 19.3354 19.6857L19.2683 19.1781H34.9942C45.8233 19.1781 50.7311 19.2071 50.7311 19.2755Z" fill="white"/>
</svg>
