<svg width="70" height="70" viewBox="0 0 70 70" fill="none" xmlns="http://www.w3.org/2000/svg">
<rect width="70" height="70" rx="20" fill="#D7C100"/>
<path d="M29.75 16.625H21V39.865C21 45.615 19.03 47.22 15.595 47.22C13.985 47.22 12.54 46.945 11.41 46.555L10.5 53.365C12.11 53.92 14.575 54.25 16.505 54.25C24.385 54.25 29.75 50.545 29.75 39.925V16.625Z" fill="white"/>
<path d="M48.83 15.75C40.36 15.75 35 20.56 35 26.925C35 32.405 39.13 35.83 45.135 38.045C49.475 39.595 51.195 40.975 51.195 43.245C51.195 45.735 49.21 47.34 45.46 47.34C41.975 47.34 38.81 46.175 36.665 45.015L35 51.925C37.04 53.09 40.845 54.25 44.97 54.25C54.89 54.25 59.5 48.94 59.5 42.685C59.5 37.375 56.55 33.945 50.175 31.51C45.455 29.63 43.475 28.58 43.475 26.2C43.475 24.32 45.19 22.605 48.73 22.605C52.215 22.605 54.61 23.775 56.005 24.495L58.095 17.495C55.905 16.54 52.96 15.75 48.83 15.75Z" fill="white"/>
</svg>
