<svg width="70" height="70" viewBox="0 0 70 70" fill="none" xmlns="http://www.w3.org/2000/svg">
<rect width="70" height="70" rx="20" fill="#07A6FF"/>
<g clip-path="url(#clip0_25_55)">
<path d="M39.345 34.8251C39.345 37.5101 37.325 39.6901 34.83 39.6901C32.335 39.6901 30.315 37.5101 30.315 34.8251C30.315 32.1401 32.335 29.9601 34.83 29.9601C37.325 29.9601 39.345 32.1401 39.345 34.8251Z" fill="white"/>
<path d="M50.81 26.4851L50.115 28.5701H49.765L49.415 28.2201H49.065L48.715 27.8701H47.67L47.32 27.5201H46.625L45.93 27.1701H45.235L44.54 26.8201H42.805L42.11 26.4701H40.375L39.68 26.1201H34.815V23.7001H39.33L40.025 24.0501H42.11L42.46 24.4001H44.55L44.9 24.7501H45.945L46.64 25.1001H47.335L47.685 25.4501H48.73L49.08 25.8001H49.775L50.125 26.1501H50.475L50.81 26.4851ZM59.49 34.8251H57.405V34.1301L57.055 33.7801V33.4301L56.36 32.7351V32.3851H56.01V32.0351L55.66 31.6851H55.31V31.3351H54.96L54.28 30.6501H53.93L53.235 29.9551H52.885L52.535 29.6051H52.185L51.835 29.2551H51.485L51.135 28.9051H50.45L50.1 28.5551L50.795 26.4701H51.145L51.84 26.8201H52.19L52.54 27.1701H53.235L53.93 27.8651H54.28L54.975 28.5601H55.325L56.37 29.6051H56.72L57.75 30.6501V31.0001H58.1L58.45 31.3501V31.7001L58.8 32.0501V32.4001L59.15 32.7501V33.4451L59.5 33.7951V34.8251H59.49ZM50.115 43.8551L49.765 41.7701L50.115 41.4201H50.465L51.16 41.0701H51.51L52.205 40.3751H52.555L52.905 40.0251H53.6L54.99 38.6351H55.34L55.69 38.2851V37.9351H56.04L56.39 37.5851V37.2351H56.74V36.8851L57.09 36.5351V36.1851H57.44V34.7951H59.5V36.5301H59.15V37.2501L58.8 37.6001V37.9501L58.105 38.6451V38.9951L57.41 39.6901H57.06V40.0401L56.015 41.0851H55.665L54.97 41.7801L54.275 42.1301H53.925L53.23 42.8251H52.55L51.855 43.5201H51.16L50.81 43.8701L50.115 43.8551ZM34.825 46.2851V43.8551H40.38L41.075 43.5051H42.815L43.51 43.1551H45.25L45.6 42.8051H46.295L46.99 42.4551H47.685L48.035 42.1051H48.73L49.08 41.7551H49.775L50.125 43.8401L49.775 44.1901H49.425L49.075 44.5401H48.38L47.685 44.8901H46.99L46.295 45.2401H45.6L45.25 45.5901H43.165L42.815 45.9401H40.035L39.685 46.2901H34.825V46.2851ZM19.54 43.8551L20.235 41.7701H20.585L20.935 42.1201H21.63L21.98 42.4701H23.025L23.375 42.8201H24.07L24.42 43.1701H25.8L26.495 43.5201H28.925L29.275 43.8701H34.83V46.3001H29.62L29.27 45.9501H26.49L26.14 45.6001H24.75L24.055 45.2501H23.36L22.665 44.9001H21.97L21.62 44.5501H20.575L20.225 44.2001H19.875L19.54 43.8551ZM10.51 34.8251H12.595V36.2151H12.945V36.5651L13.295 36.9151V37.2651H13.645V37.6151L14.685 38.6501H15.035V39.0001L15.385 39.3501H15.735L16.43 40.0451H16.78L17.13 40.3951H17.48L18.175 41.0901H18.87L19.22 41.4401H19.57L20.265 41.7901L19.55 43.8651H18.855L18.505 43.5151H17.81L17.115 42.8201H16.765L16.07 42.4701L15.72 42.1201H15.37L14.325 41.0751H13.975L12.6 39.6901V39.3401H12.25L11.56 38.6501V38.3001L11.21 37.9501V37.6001L10.86 37.2501V36.5551L10.51 36.2051V34.8251ZM18.85 26.4851L19.545 28.5701L19.195 28.9201H18.845L18.495 29.2701H17.8L17.45 29.6201H17.1L16.405 30.3151H16.055L15.705 30.6651H15.355V31.0151L15.005 31.3651H14.655L14.305 31.7151V32.0651H13.955L13.26 32.7601V33.1101L12.91 33.4601V33.8101H12.56V34.8551H10.5V33.8101L10.85 33.4601V32.7651L11.2 32.4151V32.0651L11.55 31.7151V31.3651H11.9L12.25 31.0151V30.6651L12.945 29.9701H13.295V29.6201L13.99 28.9251H14.34L15.035 28.2301H15.385L15.735 27.8801L16.43 27.5301H16.78L17.475 26.8351H18.15L18.5 26.4851H18.85ZM34.825 23.7101V26.1401H30.31L29.615 26.4901H27.53L27.18 26.8401H25.79L25.095 27.1901H23.705L23.355 27.5401H22.31L21.96 27.8901H21.61L21.26 28.2401H20.215L19.865 28.5901H19.515L18.82 26.5051L19.17 26.1551H19.865L20.215 25.8051H20.91L21.605 25.4551H21.955L22.305 25.1051H23.35L23.7 24.7551H25.44L25.79 24.4051H27.18L27.875 24.0551H29.96L30.655 23.7051H34.825V23.7101Z" fill="white"/>
<path d="M36.22 15.025L37.61 17.11H37.26L36.565 17.8V18.15L34.135 20.58V21.275L32.745 22.665L32.395 23.36L31.7 24.055V24.75L31.005 25.445L30.655 26.14L29.96 26.835V27.53L29.61 27.88L29.26 28.575L28.91 28.925L28.56 29.62V29.97L28.21 30.665L26.125 29.275L26.475 28.925L26.825 28.23L27.175 27.88L27.525 27.185L27.875 26.835V26.14L28.225 25.79L28.575 25.095L28.925 24.745L29.275 24.05L29.625 23.7L29.975 23.005L30.67 22.31V21.615L31.715 20.57L32.065 19.875L33.805 18.135L34.155 17.44L34.505 17.09V16.74L36.24 15L36.22 15.025ZM47.335 10.855L46.29 12.94H45.94L45.59 12.59H44.2L43.85 12.94H43.155L42.805 13.29H42.455L42.105 13.64H41.755L41.405 13.99H41.055L40.36 14.685H40.01L37.58 17.115L36.19 15.03L37.58 13.64L38.275 13.29H38.625L39.67 12.245H40.02L40.725 11.55H41.075L41.425 11.2H41.775L42.125 10.85H42.475L42.825 10.5H44.215L44.565 10.15H45.61L45.96 10.5H46.655L47.005 10.85H47.335V10.855ZM49.42 24.4L47.335 24.05L47.685 23.355V21.27L48.035 20.92V17.1L47.685 16.75V15.36H47.335V14.325H46.985V13.63H46.635V13.28H46.285V12.93L47.335 10.85V11.2H47.685L48.38 11.895V12.245H48.73V12.595L49.08 12.945V13.295L49.43 13.645V14.34L49.78 15.035V16.425L50.13 17.12V20.94L49.78 21.635V24.065L49.42 24.4ZM43.515 40.73L41.775 39.34L42.47 38.645V37.95L42.82 37.6L43.17 36.905V36.555L43.52 35.86L43.87 35.51V34.815L44.22 34.465L44.57 33.77V33.42L44.92 33.07V32.375L45.27 32.025V31.33L45.62 30.98V30.63L45.97 29.935V29.585L46.32 28.89V28.54L46.67 28.19V27.145L47.02 26.795V25.75L47.37 25.4V24.01L49.455 24.36V25.405L49.105 25.755V26.8L48.755 27.495V28.19L48.405 28.885V29.235L48.055 29.93V30.28L47.705 30.63V31.325L47.355 31.675V32.37L47.005 32.72V33.415L46.655 33.765V34.46L46.305 34.81L45.955 35.505V35.855L45.605 36.55L45.255 36.9V37.6L44.905 37.95L44.555 38.645V38.995L44.205 39.69L43.855 40.04L43.515 40.73ZM34.13 54.625L32.74 52.885L35.17 50.455V50.105L35.52 49.755L35.87 49.06L36.915 48.015V47.665L37.265 47.315L37.615 46.62L38.31 45.925L38.66 45.23V44.88L39.01 44.53L39.36 43.835L40.055 43.14L40.405 42.445V42.095L40.755 41.4L41.105 41.05L41.455 40.355V40.005L41.805 39.31L43.545 40.7V41.05L43.195 41.745L42.845 42.095L42.495 42.79L42.145 43.14V43.85L41.795 44.2L41.445 44.895L41.095 45.245L40.745 45.94L40.395 46.29V46.64L40.045 47.335L39.35 48.03L39 48.725L37.955 49.77V50.465L35.87 52.55L35.52 53.245L35.17 53.595V53.945L34.82 54.295H34.47L34.13 54.625ZM22.67 59.14L23.715 57.055H24.065L24.415 57.405H25.8L26.15 57.055H26.845L27.195 56.705H27.89L28.24 56.355H28.59L28.94 56.005H29.29V55.655L29.64 55.305H29.99L30.685 54.955L32.77 52.87L34.16 54.605L33.81 55.3L33.115 55.65L32.07 56.695H31.72L30.665 57.75L29.97 58.1H29.62L29.27 58.45H28.92L28.57 58.8H28.22L27.87 59.15H27.52L27.17 59.5H26.125L25.775 59.85H24.385L24.035 59.5H23.34L22.99 59.15L22.67 59.14ZM20.235 46.285L22.32 46.98V48.37L21.97 48.72V53.235L22.32 53.585V54.975L22.67 55.325V56.02H23.02V56.37L23.715 57.065L22.67 59.15L21.28 57.76V57.41L20.93 57.06V56.71L20.58 56.36V55.665L20.23 55.315V53.925L19.88 53.23V48.715L20.23 48.02L20.235 46.285ZM26.145 29.265L28.23 30.655L27.88 31.005L27.53 31.7L27.18 32.05V32.745L26.83 33.095L26.48 33.79V34.485L26.13 34.835L25.78 35.53V35.88L25.43 36.575L25.08 36.925V37.62L24.73 37.97V38.65L24.38 39V39.695L24.03 40.045V40.74L23.68 41.09V41.785L23.33 42.135V43.18L22.98 43.53V44.575L22.63 44.925V45.95L22.28 46.3V46.995L20.225 46.3L20.575 45.95V44.56L20.925 43.865V42.82L21.275 42.47V41.775L21.625 41.425V40.73L21.975 40.38V39.685L22.325 39.335V38.64L22.675 38.29V37.595L23.025 37.245V36.55L23.375 35.855V35.505L23.725 34.81L24.075 34.46V33.765L24.425 33.415L25.12 32.025V31.675L25.815 30.285L26.165 29.935L26.145 29.265Z" fill="white"/>
<path d="M20.235 24.055L22.32 23.36L22.67 23.71V25.1L23.02 25.795V26.49L23.37 27.185V27.535L23.72 28.23V28.925L24.07 29.62V29.97L24.42 30.665V31.015L24.77 31.71V32.06L25.12 32.755L25.47 33.105V33.8L25.82 34.15V34.845L26.17 35.195L26.52 35.89V36.24L26.87 36.935L27.22 37.285V37.98L27.57 38.33L27.92 39.025L28.27 39.375L26.5 40.74L26.15 40.045L25.8 39.695L25.45 39L25.1 38.65V37.955L24.75 37.26L24.4 36.91V36.215L24.05 35.865L23.7 35.17V34.82L23.005 33.43V33.08L22.655 32.385V32.035L22.305 31.34V30.99L21.955 30.295V29.945L21.605 29.25V28.9L21.255 28.205V27.16L20.905 26.81V25.765L20.555 25.415V24.4L20.235 24.055ZM22.67 10.855L23.715 12.94V13.29H23.365V13.64H23.015V13.99L22.665 14.34V15.035H22.315V16.425L21.965 16.775V20.945L22.315 21.295V23.38L20.23 24.075V21.645L19.88 21.295V16.43L20.23 16.08V14.68L20.58 14.33V13.635L20.93 13.285V12.935L21.625 12.24V11.89L22.67 10.855ZM34.13 15.72L32.74 17.46L29.96 14.68H29.61L28.915 13.985H28.565L28.215 13.635H27.865L27.515 13.285H26.82L26.47 12.935H25.425V12.585H24.75L24.4 12.935H23.705L22.66 10.85H23.355V10.5H26.83L27.18 10.85H27.53L27.88 11.2H28.23L28.58 11.55H28.93L29.28 11.9H29.975L31.02 12.945H31.37L32.05 13.635L32.745 13.985L33.79 15.03L34.13 15.72ZM43.515 29.265L41.775 30.655L41.425 29.96V29.61L41.075 28.915L40.38 28.22V27.525L40.03 27.175L39.68 26.48L38.985 25.785V25.09L37.95 24.055L37.6 23.36V23.01L36.21 21.62L35.86 20.925V20.575L33.775 18.49V18.14L33.425 17.79H33.075L32.725 17.44L34.115 15.7L34.465 16.05H34.815L36.205 17.44V18.135L38.29 20.22L38.64 20.915V21.265L39.335 21.96L39.685 22.655L40.38 23.35L40.73 24.045V24.395L41.08 24.745L41.43 25.44L42.125 26.135V26.83L42.475 27.18L42.825 27.875L43.175 28.225L43.525 28.92V29.265H43.515ZM49.765 45.94L47.68 46.29V45.94L47.33 45.245V44.55L46.98 44.2V43.155L46.63 42.46V41.765L46.28 41.07V40.72L45.93 40.37V39.675L45.58 39.325V38.63L45.23 38.28V37.6L44.55 36.905V36.21L44.2 35.86V35.165L43.85 34.815L43.5 34.12V33.77L43.15 33.075L42.8 32.725L42.45 32.03V31.68L42.1 30.985L41.75 30.635L43.49 29.245L43.84 29.94L44.19 30.29L44.54 30.985V31.335L44.89 32.03L45.24 32.38L45.59 33.075V33.77L45.94 34.12L46.29 34.815V35.165L46.64 35.86L46.99 36.21V36.905L47.34 37.255V37.95L47.69 38.3V38.995L48.04 39.345V40.04L48.39 40.39V41.085L48.74 41.435V42.48L49.09 42.83V43.525L49.44 43.875V45.25L49.765 45.94ZM47.335 59.14L46.29 57.055V56.705H46.64V56.355H46.99V56.005L47.34 55.655V55.305L47.69 54.955V53.565L48.04 53.215V48.35L47.69 48V46.26L49.775 45.91V47.65L50.125 48V53.555L49.775 53.905V55.295L49.425 55.645V56.34L49.075 56.69V57.04L48.725 57.39V57.74L47.335 59.14ZM36.565 54.975L37.955 53.235L40.385 55.665H40.735L41.085 56.015H41.435L41.785 56.365H42.135L42.485 56.715H42.835V57.065H43.88L44.23 57.415H45.95V57.065H46.3L47.345 59.15H46.995L46.645 59.5H45.95L45.6 59.85H44.21L43.86 59.5H42.815L42.465 59.15H41.77L41.42 58.8H41.07L40.72 58.45H40.37L39.675 57.755H39.325L36.565 54.975ZM26.49 40.73L28.23 39.34L28.58 40.035V40.73L28.93 41.08L29.28 41.775L29.975 42.47V43.165L30.325 43.515L30.675 44.21L31.025 44.56L31.375 45.255L32.07 45.95L32.42 46.645V46.995L33.115 47.69L33.465 48.385L35.205 50.125V50.475L37.985 53.255L36.595 54.995L32.75 51.155L32.4 50.46L31.705 49.765V49.415L31.355 48.72L30.66 48.025L30.31 47.33L29.615 46.635L29.265 45.94L28.915 45.59L28.565 44.895L28.215 44.545V43.85L27.865 43.5L27.515 42.805L27.165 42.455L26.47 41.065V40.73H26.49Z" fill="white"/>
</g>
<defs>
<clipPath id="clip0_25_55">
<rect width="50" height="50" fill="white" transform="translate(10 10)"/>
</clipPath>
</defs>
</svg>
